<?xml version="1.0" encoding="UTF-8"?>
<!DOCTYPE svg PUBLIC "-//W3C//DTD SVG 1.1//EN" "http://www.w3.org/Graphics/SVG/1.1/DTD/svg11.dtd">
<!-- Creator: CorelDRAW 2020 (64 Bit) -->
<svg xmlns="http://www.w3.org/2000/svg" xml:space="preserve" width="103.564mm" height="22.3403mm" version="1.1" style="shape-rendering:geometricPrecision; text-rendering:geometricPrecision; image-rendering:optimizeQuality; fill-rule:evenodd; clip-rule:evenodd"
viewBox="0 0 8712.1 1879.33"
 xmlns:xlink="http://www.w3.org/1999/xlink"
 xmlns:xodm="http://www.corel.com/coreldraw/odm/2003">
 <defs>
  <style type="text/css">
   <![CDATA[
    .fil1 {fill:#D1D3D4}
    .fil2 {fill:white}
    .fil3 {fill:#D42E12}
    .fil0 {fill:#FEFEFE;fill-rule:nonzero}
   ]]>
  </style>
 </defs>
 <g id="Camada_x0020_1">
  <metadata id="CorelCorpID_0Corel-Layer"/>
  <g id="_2383985698208">
   <path class="fil0" d="M7219.21 685.16l-157.91 0 0 -121.47 157.91 0 0 121.47zm-308.57 779.52l150.66 0 0 -628.9 157.91 0 0 628.9 150.67 0 0 -1051.62 -459.24 0 0 1051.62z"/>
   <path class="fil0" d="M8561.43 685.16l-157.92 0 0 -121.47 157.92 0 0 121.47zm-308.61 -272.1l0 1051.62 150.7 0 0 -628.9 157.92 0 0 628.9 150.66 0 0 -1051.62 -459.28 0z"/>
   <polygon class="fil0" points="7737.51,413.02 7478.82,413.02 7478.82,1464.67 7629.48,1464.67 7629.48,563.68 7734.57,563.68 7734.57,1464.67 7737.51,1464.67 7885.27,1464.67 7888.18,1464.67 7888.18,563.68 7993.26,563.68 7993.26,1464.67 8143.93,1464.67 8143.93,413.02 7885.27,413.02 "/>
   <polygon class="fil0" points="6345.51,1466.27 6804.77,1466.27 6804.77,690.38 6579.07,690.38 6579.07,841.04 6654.07,841.04 6654.07,1315.67 6496.15,1315.67 6496.15,563.66 6654.07,563.66 6654.07,607.17 6804.77,607.17 6804.77,413.02 6345.51,413.02 "/>
   <path class="fil0" d="M5940.35 685.16l-157.91 0 0 -121.47 157.91 0 0 121.47zm-308.58 779.52l150.67 0 0 -628.9 157.91 0 0 628.9 150.66 0 0 -1051.62 -459.24 0 0 1051.62z"/>
   <path class="fil0" d="M5217.31 563.66l157.94 0 0 594.84 -95.65 157.17 -62.29 0 0 -752.01zm-150.66 902.65l297.63 0 161.62 -265.61 0 -787.68 -459.24 0 0 1053.29z"/>
   <path class="fil0" d="M2992.83 685.13l-157.91 0 0 -121.47 157.91 0 0 121.47zm-308.61 780.47l150.7 0 0 -629.86 157.91 0 0 629.86 150.64 0 0 -1052.55 -459.24 0 0 1052.55z"/>
   <polygon class="fil0" points="3244.35,808.46 3552.93,834.9 3552.93,1313.32 3395.05,1313.32 3395.05,980.29 3244.35,980.29 3244.35,1463.96 3703.63,1463.96 3703.63,696.55 3395.05,670.14 3395.05,563.66 3552.93,563.66 3552.93,607.17 3703.63,607.17 3703.63,413.05 3244.35,413.05 "/>
   <path class="fil0" d="M4517.2 563.66l157.92 0 0 750.23 -157.92 0 0 -750.23zm-150.66 900.87l459.28 0 0 -1051.51 -459.28 0 0 1051.51z"/>
   <polygon class="fil0" points="3805.43,1463.58 4264.71,1463.58 4264.71,1244.66 4114.04,1244.66 4114.04,1312.97 3956.13,1312.97 3956.13,563.67 4114.04,563.67 4114.04,912.15 4264.71,912.15 4264.71,413.03 3805.43,413.03 "/>
   <polygon class="fil0" points="2431.75,1063.38 2350.35,1226.07 2273.84,1064.24 2273.84,413.02 2123.17,413.02 2123.17,1098.07 2295.8,1463.04 2400.24,1463.04 2582.39,1098.93 2582.39,413.02 2431.75,413.02 "/>
  </g>
  <g id="_2383985706560">
   <path class="fil1" d="M1879.33 939.68c0,-518.98 -420.68,-939.68 -939.65,-939.68 -518.95,0 -939.69,420.7 -939.69,939.68 0,518.95 420.73,939.65 939.69,939.65 518.96,0 939.65,-420.71 939.65,-939.65z"/>
   <path class="fil2" d="M1783.88 939.68c0,-466.24 -377.94,-844.22 -844.19,-844.22 -466.24,0 -844.18,377.97 -844.18,844.22 0,466.22 377.94,844.18 844.18,844.18 466.25,0 844.19,-377.96 844.19,-844.18z"/>
   <path class="fil3" d="M982.96 1477.7l-431.39 0c0,0 263.89,-156.9 290.82,-440.7 -283.48,26.11 -440.7,289.69 -440.7,289.69l0 -774.06c0,0 157.23,263.57 440.7,289.71 -12.37,-179.21 -114.97,-372.35 -290.82,-440.7l776.33 0c0,0 -263.9,156.86 -290.94,440.7 283.6,-26.14 440.73,-291.36 440.73,-291.36l0 775.71c0,0 -157.12,-263.57 -440.73,-289.69 27.04,283.81 290.94,440.7 290.94,440.7l-344.94 0z"/>
  </g>
 </g>
</svg>
